<svg xmlns="http://www.w3.org/2000/svg" width="743.083" height="849.482" viewBox="0 0 743.083 849.482">
  <path id="Trazado_204" data-name="Trazado 204" d="M1013.393,550.565c0-14.75-6.06-25.269-18.55-32.156-18-9.921-36.13-20.46-53.662-30.64l-12.314-7.155Q901.979,465.038,875.12,449.4q-36.081-20.979-72.191-41.9l-21.492-12.427c-37.2-21.526-75.658-43.776-113.8-65.184-14.7-8.228-32.409-8.531-48.607-.793-12.042,5.757-23.464,12.686-34.508,19.391-4.564,2.767-9.134,5.54-13.74,8.223L539.94,374.736q-31.11,18.2-62.27,36.3-36.018,20.853-72.163,41.494L356.4,480.74c-21.92,12.616-43.833,25.241-65.886,37.612-13.334,7.477-20.115,18.655-20.15,33.244-.042,16.739,6.207,28.4,19.11,35.639,14.057,7.885,28.239,16.218,41.952,24.286q10.763,6.319,21.547,12.609l15.391,8.951c20.733,12.063,42.161,24.526,63.463,36.481,4.192,2.345,4.185,3.048,4.163,5.969-.351,55.936-.238,113.369-.133,164.054.035,17.517,7.184,30.451,21.246,38.434q35.6,20.2,70.934,40.869,46.275,26.9,92.426,54.041c14.982,8.846,29.734,8.7,45.1-.45,25.24-15.011,51.184-29.874,76.27-44.253q17.031-9.763,34.052-19.561l11.129-6.41c13.655-7.85,27.767-15.966,41.508-24.307,18.536-11.241,24.827-29.544,16.837-48.972-7.19-17.483-25.009-25.5-45.335-20.411-8.236,2.05-15.109,6.4-21.176,10.237-1.888,1.2-3.777,2.394-5.7,3.511-38.9,22.587-80.328,46.613-121.485,70.127l-1.84,1.06c-6.537,3.819-7.6,4.178-11.528,1.755-35.281-21.505-73.1-43.425-122.63-71.067-3.02-1.685-3.293-1.966-3.286-6.417l.021-9.247c.1-43.657.2-88.81-.141-133.239-.014-2.19-.014-2.71,2.935-4.409l21.744-12.5q52.616-30.246,105.127-60.683c.2-.12.372-.2.512-.274.162.077.379.189.653.351q60.957,35.219,122.082,70.148l24.2,13.881c5.588,3.236,12.5,7.372,21.435,7.146,15.587-.21,31.694-12.37,35.9-27.086,4.936-17.294-1.2-34.34-15.629-43.425-12.49-7.864-25.192-15.25-34.868-20.811q-67.264-38.641-134.643-77.07a36.4,36.4,0,0,0-36.348-.576c-15.453,8.257-30.387,16.9-44.359,25.038Q557.008,559,533.144,573.2l-20.712,12.238c-3.384,1.882-6.783,3.729-10.187,5.582-8.544,4.647-17.378,9.464-25.943,14.667-1.5.913-1.72,1.046-4.142-.344q-44.707-25.949-89.5-51.724,18.5-10.826,36.994-21.66,43.832-25.676,87.749-51.184c15.482-8.958,31.033-17.783,46.578-26.609,25.929-14.723,52.736-29.945,78.8-45.538,8.355-5.027,11.424-5.056,19.315-.218,29.966,18.359,60.978,35.962,90.965,52.988q14.956,8.488,29.9,17.019,24.475,14.007,49.035,27.832l21.337,12.069c.6.434,1.2.878,1.8,1.327a64.344,64.344,0,0,0,6.369,4.346q25.043,14.332,50.123,28.617L939.3,574.121c1.987,1.13,2.409,1.474,2.317,4.331-.456,15.426-.379,31.034-.3,46.122.028,5.729.063,11.451.063,17.167v23.942q0,125.642.056,251.3a20.694,20.694,0,0,1-.119,2.7q-18.8,10.743-37.521,21.6L836.75,979.84q-38.262,21.959-76.5,43.994-37,21.39-73.924,42.905L644,1091.35c-1.158.674-1.2.638-2.261.021-16.632-9.928-33.118-19.547-48.993-28.6-8.488-4.844-16.921-9.773-25.36-14.709-19.013-11.122-38.665-22.615-58.71-32.956l-2.752-1.89c-2.605-1.811-5.217-3.616-7.955-5.21L466.7,989.817c-38.538-22.438-78.383-45.629-117.926-67.914-3.8-2.142-4.149-2.794-4.128-7.716q.188-44.654.125-89.315,0-36.461.07-72.935c.042-17.117-6.08-29.165-18.718-36.861-10.735-6.544-23.492-7.162-35.92-1.79-12.856,5.546-19.9,16.625-19.343,30.394.232,5.87.035,11.774-.176,18.016-.154,4.5-.308,9-.294,13.5q.052,24.748.245,49.484c.246,37.191.492,75.651-.147,113.391-.393,23.816,13.01,34.572,24.728,41.284l49.329,28.231q64.885,37.123,129.7,74.375,33.154,19.082,66.223,38.335,40.948,23.769,81.972,47.392a39.657,39.657,0,0,0,19.856,5.3,43.993,43.993,0,0,0,19.82-4.873c10.545-5.322,20.8-11.311,30.7-17.11l7.885-4.6q29.773-17.262,59.531-34.579,37.6-21.863,75.218-43.657l1.088-.639c51.6-29.846,104.965-60.71,157.6-90.754,13-7.4,19.308-18.388,19.3-33.567Q1013.178,746.884,1013.393,550.565Z" transform="translate(-270.359 -323.502)" fill="rgba(255,255,255,0.14)"/>
</svg>
