<svg xmlns="http://www.w3.org/2000/svg" width="50" height="49.863" viewBox="0 0 50 49.863">
  <g id="Grupo_63" data-name="Grupo 63" transform="translate(-785.21 -429.565)">
    <g id="Grupo_62" data-name="Grupo 62" transform="translate(785.21 429.565)">
      <path id="Trazado_295" data-name="Trazado 295" d="M823.429,460.065c.693-.778,1.264-1.569,1.976-2.239a10.84,10.84,0,0,1,7.8-3.077,18.05,18.05,0,0,1,4.9.6,9.583,9.583,0,0,1,6.8,7.156,30,30,0,0,1,.906,8.2c.01,5.828-.017,11.655,0,17.483,0,.545-.151.689-.689.684q-4.5-.037-9.007,0c-.529,0-.642-.159-.641-.658q.024-8.318,0-16.636a14.967,14.967,0,0,0-.483-4.129,4.644,4.644,0,0,0-5.107-3.619c-3.56.188-5.411,1.951-5.866,5.572a20.8,20.8,0,0,0-.159,2.6c0,5.393-.006,10.786.014,16.179,0,.538-.132.7-.682.692q-4.537-.04-9.073,0c-.485,0-.625-.128-.624-.618q.021-16.015,0-32.032c0-.528.172-.651.672-.647q4.308.032,8.616,0c.529,0,.665.166.654.667C823.41,457.512,823.429,458.789,823.429,460.065Z" transform="translate(-795.818 -439.009)" fill="#fefefe"/>
      <path id="Trazado_296" data-name="Trazado 296" d="M796.848,472.759c0,5.283-.009,10.564.013,15.847,0,.587-.144.764-.751.757-3-.032-6-.025-9,0-.481,0-.626-.117-.625-.614q.022-16.043,0-32.085c0-.443.107-.6.577-.6,3.045.02,6.089.026,9.134,0,.584-.006.664.221.663.723Q796.834,464.771,796.848,472.759Z" transform="translate(-785.686 -439.501)" fill="#fefefe"/>
      <path id="Trazado_297" data-name="Trazado 297" d="M797.2,435.529a5.994,5.994,0,1,1-5.984-5.964A6.014,6.014,0,0,1,797.2,435.529Z" transform="translate(-785.21 -429.565)" fill="#fefefe"/>
    </g>
  </g>
</svg>
