<svg width="240" height="240" viewBox="0 0 240 240" fill="none" xmlns="http://www.w3.org/2000/svg">
<path d="M120 240C186.274 240 240 186.274 240 120C240 53.7258 186.274 0 120 0C53.7258 0 0 53.7258 0 120C0 186.274 53.7258 240 120 240Z" fill="#53AE94"/>
<path d="M67.8955 63.4009L68.0674 87.5875L108.117 87.2928L108.337 119.705L132.058 119.533L131.837 87.1209L171.861 86.8017L171.689 62.6397L67.8955 63.4009Z" stroke="white" stroke-width="7" stroke-linecap="round" stroke-linejoin="round"/>
<path d="M132.203 139.177L132.523 182.173L108.803 182.345L108.483 139.349" stroke="white" stroke-width="7" stroke-linecap="round" stroke-linejoin="round"/>
<path d="M132.671 101.461C163.954 102.812 187.674 109.908 187.748 118.649C187.748 128.471 157.644 136.796 120.32 137.066C82.9965 137.336 52.7201 129.552 52.6465 119.656C52.6465 110.89 76.1211 103.45 107.33 101.633" stroke="white" stroke-width="7" stroke-linecap="round" stroke-linejoin="round"/>
</svg>
