<svg xmlns="http://www.w3.org/2000/svg" width="57.05" height="57.049" viewBox="0 0 57.05 57.049">
  <g id="Grupo_55" data-name="Grupo 55" transform="translate(-918.618 -269.652)">
    <path id="Trazado_286" data-name="Trazado 286" d="M947.654,320.8a23.452,23.452,0,0,1-12.952-3.868l-9.044,2.87,2.936-8.664a23.206,23.206,0,0,1-4.471-13.7c0-.759.04-1.521.105-2.267a23.56,23.56,0,0,1,46.9.445c.04.591.078,1.206.078,1.822A23.48,23.48,0,0,1,947.654,320.8Zm27.986-24.067a28,28,0,0,0-55.946-.513q-.041.611-.04,1.219a27.423,27.423,0,0,0,4.024,14.342l-5.06,14.918,15.508-4.929a28.046,28.046,0,0,0,41.541-24.331c0-.236-.015-.47-.027-.707Z" transform="translate(0)" fill="#fefefe" fill-rule="evenodd"/>
    <path id="Trazado_287" data-name="Trazado 287" d="M952.4,295.111c-.694-.352-4.062-1.993-4.693-2.215s-1.086-.342-1.546.34-1.77,2.217-2.177,2.662-.8.513-1.481.171a18.664,18.664,0,0,1-5.52-3.383,20.572,20.572,0,0,1-3.828-4.706c-.392-.681-.038-1.048.3-1.39.316-.314.7-.8,1.036-1.192.105-.118.171-.224.251-.327a7.257,7.257,0,0,0,.432-.814,1.23,1.23,0,0,0-.053-1.192c-.171-.342-1.548-3.7-2.111-5.06s-1.154-1.128-1.546-1.128c-.407,0-.867-.065-1.325-.065a2.513,2.513,0,0,0-1.822.852,7.624,7.624,0,0,0-2.411,5.688,8.513,8.513,0,0,0,.352,2.307,15.465,15.465,0,0,0,2.451,4.733c.342.445,4.746,7.551,11.733,10.278s6.975,1.82,8.232,1.7,4.064-1.637,4.64-3.238a5.692,5.692,0,0,0,.394-3.237c-.171-.274-.628-.445-1.312-.787Z" transform="translate(8.086 7.941)" fill="#fefefe" fill-rule="evenodd"/>
  </g>
</svg>
