<svg xmlns="http://www.w3.org/2000/svg" width="340" height="50.229" viewBox="0 0 340 50.229">
  <g id="Grupo_3" data-name="Grupo 3" transform="translate(-270.359 -323.502)">
    <path id="Trazado_1" data-name="Trazado 1" d="M314.294,336.928a2.005,2.005,0,0,0-1.1-1.9c-1.064-.587-2.136-1.21-3.173-1.812l-.728-.423q-1.59-.921-3.178-1.846-2.133-1.24-4.269-2.477l-1.271-.735c-2.2-1.273-4.474-2.588-6.729-3.854a3.09,3.09,0,0,0-2.874-.047c-.712.34-1.387.75-2.04,1.147-.27.164-.54.328-.812.486l-1.823,1.066q-1.84,1.076-3.682,2.146-2.13,1.233-4.267,2.454l-2.9,1.668c-1.3.746-2.592,1.492-3.9,2.224a2.145,2.145,0,0,0-1.191,1.966,2.2,2.2,0,0,0,1.13,2.107c.831.466,1.67.959,2.481,1.436q.636.374,1.274.746l.91.529c1.226.713,2.493,1.45,3.753,2.157.248.139.247.18.246.353-.021,3.307-.014,6.7-.008,9.7a2.436,2.436,0,0,0,1.256,2.273q2.1,1.194,4.194,2.417,2.736,1.59,5.465,3.2a2.428,2.428,0,0,0,2.667-.027c1.492-.888,3.026-1.766,4.51-2.617q1.007-.577,2.013-1.157l.658-.379c.807-.464,1.642-.944,2.454-1.437a2.212,2.212,0,0,0,1-2.9,2.161,2.161,0,0,0-2.681-1.207,4.3,4.3,0,0,0-1.252.605c-.112.071-.223.142-.337.208-2.3,1.336-4.75,2.756-7.183,4.147l-.109.063c-.387.226-.45.247-.682.1-2.086-1.272-4.322-2.568-7.251-4.2-.179-.1-.195-.116-.194-.379v-.547c.006-2.581.012-5.251-.008-7.878,0-.13,0-.16.174-.261l1.286-.739q3.111-1.788,6.216-3.588l.03-.016.039.021q3.6,2.082,7.219,4.148l1.431.821a2.178,2.178,0,0,0,3.39-1.179,2.231,2.231,0,0,0-.924-2.568c-.739-.465-1.49-.9-2.062-1.231q-3.977-2.285-7.961-4.557a2.152,2.152,0,0,0-2.149-.034c-.914.488-1.8,1-2.623,1.48q-1.419.827-2.83,1.666l-1.225.724c-.2.111-.4.22-.6.33-.505.275-1.027.56-1.534.867-.088.054-.1.062-.245-.02q-2.643-1.534-5.292-3.058l2.187-1.281q2.592-1.518,5.189-3.026c.915-.53,1.835-1.052,2.754-1.573,1.533-.871,3.118-1.771,4.66-2.693a.855.855,0,0,1,1.142-.013c1.772,1.086,3.606,2.126,5.379,3.133q.884.5,1.768,1.006,1.447.828,2.9,1.646l1.262.714.106.078a3.81,3.81,0,0,0,.377.257q1.481.848,2.964,1.692l2.228,1.272c.117.067.142.087.137.256-.027.912-.022,1.835-.018,2.727,0,.339,0,.677,0,1.015v1.416q0,7.429,0,14.859a1.216,1.216,0,0,1-.007.159q-1.112.635-2.219,1.277l-3.964,2.28q-2.262,1.3-4.523,2.6-2.188,1.265-4.371,2.537l-2.5,1.455c-.068.04-.071.038-.134,0-.983-.587-1.958-1.156-2.9-1.691-.5-.286-1-.578-1.5-.87-1.124-.658-2.286-1.337-3.471-1.949l-.163-.112c-.154-.107-.308-.214-.47-.308l-1.849-1.075c-2.279-1.327-4.635-2.7-6.973-4.016-.225-.127-.245-.165-.244-.456q.011-2.64.007-5.281,0-2.156,0-4.313a2.332,2.332,0,0,0-1.107-2.18,2.259,2.259,0,0,0-2.124-.106,1.8,1.8,0,0,0-1.144,1.8c.014.347,0,.7-.01,1.065-.009.266-.018.532-.017.8q0,1.463.015,2.926c.015,2.2.029,4.473-.009,6.7a2.558,2.558,0,0,0,1.462,2.441l2.917,1.669q3.837,2.2,7.669,4.4,1.96,1.128,3.916,2.267,2.421,1.405,4.847,2.8a2.345,2.345,0,0,0,1.174.313,2.6,2.6,0,0,0,1.172-.288c.624-.315,1.23-.669,1.815-1.012l.466-.272q1.76-1.021,3.52-2.045,2.223-1.293,4.448-2.581l.064-.038c3.051-1.765,6.206-3.59,9.319-5.366a2.117,2.117,0,0,0,1.141-1.985Q314.281,348.536,314.294,336.928Z" fill="#19720f"/>
    <g id="Grupo_1" data-name="Grupo 1" transform="translate(328.8 335.826)">
      <path id="Trazado_2" data-name="Trazado 2" d="M427.75,359.557a6.849,6.849,0,0,0-3.282-.9,6.42,6.42,0,0,0-3.405.935,6.626,6.626,0,0,0-2.417,2.576,8,8,0,0,0,0,7.3,6.616,6.616,0,0,0,2.417,2.576,6.412,6.412,0,0,0,3.405.935,7.489,7.489,0,0,0,3.175-.776,10.059,10.059,0,0,0,2.965-2.117l3.775,4.058a15.093,15.093,0,0,1-4.781,3.37,13.273,13.273,0,0,1-12.121-.441,12.375,12.375,0,0,1-4.658-4.623,12.865,12.865,0,0,1-1.694-6.564,12.327,12.327,0,0,1,6.475-11.045,14.068,14.068,0,0,1,12.192-.512,13.478,13.478,0,0,1,4.552,3.123l-3.74,4.517A9.239,9.239,0,0,0,427.75,359.557Z" transform="translate(-411.129 -353.188)" fill="#157116"/>
      <path id="Trazado_3" data-name="Trazado 3" d="M488.629,378.859l-3.6-6.846h-4.8v6.846h-6.458V354.122h11.116q4.9,0,7.6,2.276a7.918,7.918,0,0,1,2.7,6.4,9.754,9.754,0,0,1-1.129,4.817,7.8,7.8,0,0,1-3.282,3.158l5.152,8.081Zm-8.4-12h4.694a4.351,4.351,0,0,0,3.052-.988,3.686,3.686,0,0,0,1.076-2.859,3.538,3.538,0,0,0-1.076-2.77,4.4,4.4,0,0,0-3.052-.971H480.23Z" transform="translate(-447.766 -353.734)" fill="#157116"/>
      <path id="Trazado_4" data-name="Trazado 4" d="M553.088,354.122l-8.928,16.832v7.9H537.7v-7.728l-9.1-17.009h6.457l5.858,10.622,5.716-10.622Z" transform="translate(-479.831 -353.734)" fill="#157116"/>
      <path id="Trazado_5" data-name="Trazado 5" d="M611.15,356.4a8.045,8.045,0,0,1,2.611,6.4,8.8,8.8,0,0,1-2.611,6.793q-2.612,2.417-7.34,2.417H599.4v6.846h-6.458V354.122H603.81Q608.538,354.122,611.15,356.4Zm-4.605,9.475a3.686,3.686,0,0,0,1.076-2.859,3.538,3.538,0,0,0-1.076-2.77,4.4,4.4,0,0,0-3.053-.971H599.4v7.587h4.093A4.352,4.352,0,0,0,606.545,365.873Z" transform="translate(-517.462 -353.734)" fill="#157116"/>
      <path id="Trazado_6" data-name="Trazado 6" d="M645.557,354.122h21.208v5.328h-7.41v19.408H652.9V359.45h-7.339Z" transform="translate(-548.234 -353.734)" fill="#157116"/>
      <path id="Trazado_7" data-name="Trazado 7" d="M716.334,354.847a12.3,12.3,0,0,1,6.545,11.045,12.521,12.521,0,0,1-6.545,11.186,14.674,14.674,0,0,1-13.657.017,12.408,12.408,0,0,1-4.8-4.622,12.657,12.657,0,0,1-1.747-6.581,12.3,12.3,0,0,1,6.546-11.045,14.886,14.886,0,0,1,13.657,0Zm-10.163,4.763a6.867,6.867,0,0,0-2.488,2.629,7.874,7.874,0,0,0,.017,7.41,7.18,7.18,0,0,0,2.488,2.647,6.27,6.27,0,0,0,3.387.97,6.185,6.185,0,0,0,3.371-.97,6.828,6.828,0,0,0,2.417-2.647,8.222,8.222,0,0,0,0-7.41,6.7,6.7,0,0,0-2.417-2.629,6.269,6.269,0,0,0-3.371-.953A6.446,6.446,0,0,0,706.171,359.61Z" transform="translate(-577.813 -353.188)" fill="#157116"/>
      <path id="Trazado_8" data-name="Trazado 8" d="M780.072,359.557a6.847,6.847,0,0,0-3.282-.9,6.419,6.419,0,0,0-3.405.935,6.622,6.622,0,0,0-2.417,2.576,8,8,0,0,0,0,7.3,6.612,6.612,0,0,0,2.417,2.576,6.412,6.412,0,0,0,3.405.935,7.489,7.489,0,0,0,3.176-.776,10.053,10.053,0,0,0,2.964-2.117l3.776,4.058a15.108,15.108,0,0,1-4.782,3.37,13.274,13.274,0,0,1-12.122-.441,12.375,12.375,0,0,1-4.658-4.623,12.869,12.869,0,0,1-1.694-6.564,12.326,12.326,0,0,1,6.476-11.045,14.067,14.067,0,0,1,12.192-.512,13.479,13.479,0,0,1,4.552,3.123l-3.741,4.517A9.23,9.23,0,0,0,780.072,359.557Z" transform="translate(-617.184 -353.188)" fill="#157116"/>
      <path id="Trazado_9" data-name="Trazado 9" d="M839.96,378.859l-1.694-4.376H827.574l-1.729,4.376h-6.634l10.622-24.737h6.634l10.375,24.737Zm-10.445-9.316h6.846l-3.388-8.822Z" transform="translate(-649.795 -353.734)" fill="#157116"/>
      <path id="Trazado_10" data-name="Trazado 10" d="M891.12,354.122h7.022l7.163,14.468,7.128-14.468h7.022v24.737h-5.717l-.035-15.668-6.317,13.2h-4.164l-6.352-13.2v15.668H891.12Z" transform="translate(-691.851 -353.734)" fill="#157116"/>
      <path id="Trazado_11" data-name="Trazado 11" d="M989.143,356.4a8.046,8.046,0,0,1,2.611,6.4,8.8,8.8,0,0,1-2.611,6.793q-2.612,2.417-7.34,2.417h-4.411v6.846h-6.458V354.122H981.8Q986.531,354.122,989.143,356.4Zm-4.605,9.475a3.686,3.686,0,0,0,1.076-2.859,3.538,3.538,0,0,0-1.076-2.77,4.4,4.4,0,0,0-3.052-.971h-4.094v7.587h4.094A4.352,4.352,0,0,0,984.538,365.873Z" transform="translate(-738.531 -353.734)" fill="#157116"/>
      <path id="Trazado_12" data-name="Trazado 12" d="M1045.112,354.847a12.3,12.3,0,0,1,6.546,11.045,12.52,12.52,0,0,1-6.546,11.186,14.674,14.674,0,0,1-13.656.017,12.41,12.41,0,0,1-4.8-4.622,12.657,12.657,0,0,1-1.747-6.581,12.3,12.3,0,0,1,6.546-11.045,14.885,14.885,0,0,1,13.656,0Zm-10.163,4.763a6.861,6.861,0,0,0-2.488,2.629,7.877,7.877,0,0,0,.017,7.41,7.182,7.182,0,0,0,2.488,2.647,6.269,6.269,0,0,0,3.387.97,6.185,6.185,0,0,0,3.37-.97,6.829,6.829,0,0,0,2.417-2.647,8.222,8.222,0,0,0,0-7.41,6.7,6.7,0,0,0-2.417-2.629,6.268,6.268,0,0,0-3.37-.953A6.445,6.445,0,0,0,1034.949,359.61Z" transform="translate(-770.098 -353.188)" fill="#157116"/>
    </g>
  </g>
</svg>
