<svg xmlns="http://www.w3.org/2000/svg" width="258.772" height="38.229" viewBox="0 0 258.772 38.229">
  <g id="Grupo_2" data-name="Grupo 2" transform="translate(-270.359 -323.502)">
    <path id="Trazado_1" data-name="Trazado 1" d="M303.8,333.72a1.526,1.526,0,0,0-.835-1.447c-.81-.446-1.626-.921-2.415-1.379l-.554-.322q-1.21-.7-2.419-1.4-1.624-.944-3.249-1.885l-.967-.559c-1.674-.969-3.4-1.97-5.122-2.933a2.352,2.352,0,0,0-2.187-.036c-.542.259-1.056.571-1.553.873-.205.125-.411.249-.618.37l-1.388.811q-1.4.819-2.8,1.634-1.621.938-3.248,1.867l-2.21,1.27c-.986.568-1.973,1.136-2.965,1.693a1.632,1.632,0,0,0-.907,1.5,1.675,1.675,0,0,0,.86,1.6c.633.355,1.271.73,1.888,1.093q.484.284.97.567l.693.4c.933.543,1.9,1.1,2.856,1.642.189.106.188.137.187.269-.016,2.517-.011,5.1-.006,7.383a1.854,1.854,0,0,0,.956,1.73q1.6.909,3.192,1.839,2.083,1.211,4.159,2.432a1.848,1.848,0,0,0,2.03-.02c1.136-.676,2.3-1.344,3.432-1.992q.766-.439,1.532-.88l.5-.288c.615-.353,1.25-.719,1.868-1.094a1.684,1.684,0,0,0,.758-2.2,1.645,1.645,0,0,0-2.04-.919,3.272,3.272,0,0,0-.953.461c-.085.054-.17.108-.257.158-1.751,1.016-3.615,2.1-5.467,3.156l-.083.048c-.294.172-.342.188-.519.079-1.588-.968-3.29-1.954-5.519-3.2-.136-.076-.148-.088-.148-.289v-.416c0-1.965.009-4-.006-6,0-.1,0-.122.132-.2l.979-.562q2.368-1.361,4.731-2.731l.023-.012.029.016q2.743,1.585,5.494,3.157l1.089.625a1.658,1.658,0,0,0,2.58-.9,1.7,1.7,0,0,0-.7-1.954c-.562-.354-1.134-.686-1.569-.937Q291,334.1,287.971,332.37a1.638,1.638,0,0,0-1.636-.026c-.7.372-1.368.761-2,1.127q-1.08.629-2.154,1.268l-.932.551c-.152.085-.305.168-.458.251-.385.209-.782.426-1.168.66-.067.041-.077.047-.186-.016q-2.012-1.168-4.028-2.328l1.665-.975q1.973-1.155,3.949-2.3c.7-.4,1.4-.8,2.1-1.2,1.167-.663,2.373-1.348,3.546-2.049a.651.651,0,0,1,.869-.01c1.349.826,2.744,1.618,4.094,2.385q.673.382,1.345.766,1.1.63,2.207,1.253l.96.543.081.06a2.9,2.9,0,0,0,.287.2q1.127.645,2.256,1.288l1.7.968c.089.051.108.066.1.195-.021.694-.017,1.4-.014,2.076,0,.258,0,.515,0,.773V338.9q0,5.654,0,11.309a.928.928,0,0,1-.005.121q-.846.483-1.689.972l-3.017,1.735q-1.722.988-3.443,1.98-1.665.963-3.327,1.931l-1.9,1.107c-.052.03-.054.029-.1,0-.749-.447-1.49-.88-2.2-1.287-.382-.218-.761-.44-1.141-.662-.856-.5-1.74-1.018-2.642-1.483l-.124-.085c-.117-.082-.235-.163-.358-.234l-1.407-.818c-1.734-1.01-3.527-2.053-5.307-3.056-.171-.1-.187-.126-.186-.347q.008-2.01.006-4.019,0-1.641,0-3.282a1.775,1.775,0,0,0-.842-1.659,1.719,1.719,0,0,0-1.616-.081,1.371,1.371,0,0,0-.871,1.368c.01.264,0,.53-.008.811-.007.2-.014.405-.013.607q0,1.114.011,2.227c.011,1.674.022,3.4-.007,5.1a1.947,1.947,0,0,0,1.113,1.858l2.22,1.27q2.92,1.671,5.837,3.347,1.492.859,2.98,1.725,1.843,1.07,3.689,2.133a1.785,1.785,0,0,0,.894.239,1.98,1.98,0,0,0,.892-.219c.475-.24.936-.509,1.382-.77l.355-.207,2.679-1.556q1.692-.984,3.385-1.965l.049-.029c2.322-1.343,4.724-2.732,7.093-4.084a1.612,1.612,0,0,0,.868-1.511Q303.788,342.555,303.8,333.72Z" fill="#fff"/>
    <g id="Grupo_1" data-name="Grupo 1" transform="translate(314.838 332.882)">
      <path id="Trazado_2" data-name="Trazado 2" d="M423.779,358.035a5.213,5.213,0,0,0-2.5-.685,4.886,4.886,0,0,0-2.592.712,5.043,5.043,0,0,0-1.84,1.96,6.09,6.09,0,0,0,0,5.56,5.035,5.035,0,0,0,1.84,1.961,4.88,4.88,0,0,0,2.592.712,5.7,5.7,0,0,0,2.417-.591,7.657,7.657,0,0,0,2.256-1.611l2.873,3.089a11.487,11.487,0,0,1-3.639,2.565,10.1,10.1,0,0,1-9.225-.336,9.418,9.418,0,0,1-3.545-3.518,9.791,9.791,0,0,1-1.289-5,9.382,9.382,0,0,1,4.928-8.406,10.706,10.706,0,0,1,9.279-.39,10.258,10.258,0,0,1,3.464,2.377l-2.847,3.438A7.032,7.032,0,0,0,423.779,358.035Z" transform="translate(-411.129 -353.188)" fill="#fff"/>
      <path id="Trazado_3" data-name="Trazado 3" d="M485.079,372.949l-2.739-5.21h-3.653v5.21h-4.915V354.122h8.46a8.727,8.727,0,0,1,5.788,1.732,6.026,6.026,0,0,1,2.054,4.875,7.424,7.424,0,0,1-.859,3.666,5.94,5.94,0,0,1-2.5,2.4l3.921,6.15Zm-6.392-9.131h3.572a3.311,3.311,0,0,0,2.323-.752,2.805,2.805,0,0,0,.819-2.176,2.693,2.693,0,0,0-.819-2.108,3.351,3.351,0,0,0-2.323-.739h-3.572Z" transform="translate(-453.979 -353.827)" fill="#fff"/>
      <path id="Trazado_4" data-name="Trazado 4" d="M547.237,354.122l-6.795,12.811v6.016h-4.915v-5.882L528.6,354.122h4.915l4.459,8.084,4.351-8.084Z" transform="translate(-491.481 -353.827)" fill="#fff"/>
      <path id="Trazado_5" data-name="Trazado 5" d="M606.8,355.854a6.123,6.123,0,0,1,1.987,4.875,6.7,6.7,0,0,1-1.987,5.17,7.918,7.918,0,0,1-5.586,1.84h-3.357v5.21h-4.915V354.122h8.272A8.235,8.235,0,0,1,606.8,355.854Zm-3.505,7.212a2.806,2.806,0,0,0,.819-2.176,2.693,2.693,0,0,0-.819-2.108,3.352,3.352,0,0,0-2.323-.739h-3.115v5.775h3.115A3.312,3.312,0,0,0,603.295,363.066Z" transform="translate(-535.494 -353.827)" fill="#fff"/>
      <path id="Trazado_6" data-name="Trazado 6" d="M645.557,354.122H661.7v4.055h-5.64v14.772h-4.915V358.177h-5.586Z" transform="translate(-571.485 -353.827)" fill="#fff"/>
      <path id="Trazado_7" data-name="Trazado 7" d="M711.508,354.45a9.362,9.362,0,0,1,4.982,8.406,9.529,9.529,0,0,1-4.982,8.514,11.169,11.169,0,0,1-10.394.013,9.443,9.443,0,0,1-3.652-3.518,9.633,9.633,0,0,1-1.33-5.009,9.363,9.363,0,0,1,4.982-8.406,11.329,11.329,0,0,1,10.394,0Zm-7.735,3.625a5.226,5.226,0,0,0-1.893,2,5.993,5.993,0,0,0,.013,5.64,5.464,5.464,0,0,0,1.894,2.014,4.772,4.772,0,0,0,2.578.738,4.707,4.707,0,0,0,2.565-.738,5.2,5.2,0,0,0,1.84-2.014,6.258,6.258,0,0,0,0-5.64,5.1,5.1,0,0,0-1.84-2,4.771,4.771,0,0,0-2.565-.725A4.906,4.906,0,0,0,703.773,358.076Z" transform="translate(-606.08 -353.188)" fill="#fff"/>
      <path id="Trazado_8" data-name="Trazado 8" d="M776.1,358.035a5.212,5.212,0,0,0-2.5-.685,4.886,4.886,0,0,0-2.592.712,5.04,5.04,0,0,0-1.84,1.96,6.09,6.09,0,0,0,0,5.56,5.033,5.033,0,0,0,1.84,1.961,4.88,4.88,0,0,0,2.592.712,5.7,5.7,0,0,0,2.417-.591,7.653,7.653,0,0,0,2.256-1.611l2.874,3.089a11.5,11.5,0,0,1-3.639,2.565,10.1,10.1,0,0,1-9.226-.336,9.418,9.418,0,0,1-3.545-3.518,9.794,9.794,0,0,1-1.289-5,9.381,9.381,0,0,1,4.929-8.406,10.706,10.706,0,0,1,9.279-.39,10.26,10.26,0,0,1,3.465,2.377l-2.847,3.438A7.025,7.025,0,0,0,776.1,358.035Z" transform="translate(-652.128 -353.188)" fill="#fff"/>
      <path id="Trazado_9" data-name="Trazado 9" d="M835,372.949l-1.289-3.33h-8.138l-1.316,3.33h-5.049l8.084-18.827h5.049l7.9,18.827Zm-7.95-7.09h5.21l-2.578-6.714Z" transform="translate(-690.27 -353.827)" fill="#fff"/>
      <path id="Trazado_10" data-name="Trazado 10" d="M891.12,354.122h5.345l5.452,11.012,5.425-11.012h5.345v18.827h-4.351l-.027-11.925L903.5,371.069h-3.169L895.5,361.024v11.925H891.12Z" transform="translate(-739.458 -353.827)" fill="#fff"/>
      <path id="Trazado_11" data-name="Trazado 11" d="M984.793,355.854a6.124,6.124,0,0,1,1.987,4.875,6.7,6.7,0,0,1-1.987,5.17,7.919,7.919,0,0,1-5.587,1.84h-3.357v5.21h-4.915V354.122h8.272A8.236,8.236,0,0,1,984.793,355.854Zm-3.505,7.212a2.806,2.806,0,0,0,.819-2.176,2.693,2.693,0,0,0-.819-2.108,3.352,3.352,0,0,0-2.323-.739h-3.116v5.775h3.116A3.312,3.312,0,0,0,981.288,363.066Z" transform="translate(-794.053 -353.827)" fill="#fff"/>
      <path id="Trazado_12" data-name="Trazado 12" d="M1040.285,354.45a9.362,9.362,0,0,1,4.982,8.406,9.529,9.529,0,0,1-4.982,8.514,11.169,11.169,0,0,1-10.394.013,9.444,9.444,0,0,1-3.653-3.518,9.633,9.633,0,0,1-1.33-5.009,9.362,9.362,0,0,1,4.982-8.406,11.329,11.329,0,0,1,10.394,0Zm-7.735,3.625a5.222,5.222,0,0,0-1.893,2,6,6,0,0,0,.013,5.64,5.465,5.465,0,0,0,1.894,2.014,4.771,4.771,0,0,0,2.578.738,4.707,4.707,0,0,0,2.565-.738,5.2,5.2,0,0,0,1.839-2.014,6.257,6.257,0,0,0,0-5.64,5.1,5.1,0,0,0-1.839-2,4.771,4.771,0,0,0-2.565-.725A4.9,4.9,0,0,0,1032.55,358.076Z" transform="translate(-830.974 -353.188)" fill="#fff"/>
    </g>
  </g>
</svg>
