<svg xmlns="http://www.w3.org/2000/svg" width="57" height="43.431" viewBox="0 0 57 43.431">
  <g id="Grupo_61" data-name="Grupo 61" transform="translate(-583.935 -378.5)">
    <path id="Trazado_294" data-name="Trazado 294" d="M632.215,382.133a46.771,46.771,0,0,0-11.759-3.633,30.126,30.126,0,0,0-1.5,3.092,44.222,44.222,0,0,0-13.03,0,32.971,32.971,0,0,0-1.547-3.092,46.4,46.4,0,0,0-11.768,3.649c-7.419,11.063-9.435,21.862-8.431,32.5a47.314,47.314,0,0,0,14.429,7.282,35.673,35.673,0,0,0,3.092-5.015,30.548,30.548,0,0,1-4.865-2.323q.607-.459,1.176-.923a33.737,33.737,0,0,0,28.854,0c.387.32.788.629,1.192.928a30.394,30.394,0,0,1-4.876,2.334,35.029,35.029,0,0,0,3.092,5,47.005,47.005,0,0,0,14.427-7.28A48,48,0,0,0,632.215,382.133Zm-29.252,25.98c-2.814,0-5.123-2.576-5.123-5.74s2.257-5.761,5.123-5.761a5.428,5.428,0,0,1,5.127,5.745C608.064,405.526,605.827,408.112,602.964,408.112Zm18.935,0c-2.813,0-5.121-2.576-5.121-5.74s2.257-5.761,5.121-5.761a5.421,5.421,0,0,1,5.123,5.745C626.99,405.526,624.764,408.112,621.9,408.112Z" fill="#fff"/>
  </g>
</svg>
