<svg xmlns="http://www.w3.org/2000/svg" width="146.916" height="167.953" viewBox="0 0 146.916 167.953">
  <path id="Trazado_204" data-name="Trazado 204" d="M417.266,368.395a6.7,6.7,0,0,0-3.668-6.358c-3.559-1.961-7.143-4.045-10.61-6.058l-2.435-1.415q-5.316-3.08-10.626-6.172-7.134-4.148-14.273-8.283l-4.249-2.457c-7.354-4.256-14.959-8.655-22.5-12.888a10.331,10.331,0,0,0-9.61-.157c-2.381,1.138-4.639,2.508-6.823,3.834-.9.547-1.806,1.1-2.717,1.626l-6.1,3.563q-6.151,3.6-12.311,7.177-7.121,4.123-14.267,8.2l-9.71,5.578c-4.334,2.494-8.666,4.99-13.026,7.436a7.17,7.17,0,0,0-3.984,6.573c-.008,3.309,1.227,5.615,3.778,7.046,2.779,1.559,5.583,3.207,8.294,4.8q2.128,1.249,4.26,2.493l3.043,1.77c4.1,2.385,8.336,4.849,12.547,7.213.829.464.827.6.823,1.18-.069,11.059-.047,22.414-.026,32.435a8.147,8.147,0,0,0,4.2,7.6q7.038,3.994,14.025,8.08,9.149,5.318,18.274,10.685a8.119,8.119,0,0,0,8.917-.089c4.99-2.968,10.12-5.906,15.079-8.749q3.367-1.93,6.733-3.867l2.2-1.267c2.7-1.552,5.49-3.157,8.207-4.806,3.665-2.223,4.909-5.841,3.329-9.682-1.422-3.457-4.945-5.042-8.963-4.036a14.38,14.38,0,0,0-4.187,2.024c-.373.237-.747.473-1.127.694-7.692,4.466-15.882,9.216-24.019,13.865l-.364.209c-1.292.755-1.5.826-2.279.347-6.976-4.252-14.452-8.586-24.245-14.051-.6-.333-.651-.389-.65-1.269l0-1.828c.019-8.632.039-17.559-.028-26.343,0-.433,0-.536.58-.872l4.3-2.471q10.4-5.98,20.785-12c.04-.024.074-.04.1-.054.032.015.075.037.129.069q12.052,6.963,24.137,13.869L373,394.342a7.284,7.284,0,0,0,11.336-3.942,7.461,7.461,0,0,0-3.09-8.586c-2.469-1.555-4.981-3.015-6.894-4.115q-13.3-7.64-26.62-15.238a7.2,7.2,0,0,0-7.186-.114c-3.055,1.633-6.008,3.341-8.77,4.95q-4.743,2.765-9.462,5.572l-4.1,2.42c-.669.372-1.341.737-2.014,1.1-1.689.919-3.436,1.871-5.129,2.9-.3.181-.34.207-.819-.068q-8.839-5.13-17.7-10.226,3.658-2.14,7.314-4.283,8.666-5.076,17.349-10.12c3.061-1.771,6.136-3.516,9.209-5.261,5.127-2.911,10.426-5.921,15.581-9,1.652-.994,2.259-1,3.819-.043,5.925,3.63,12.056,7.11,17.985,10.476q2.957,1.678,5.911,3.365,4.839,2.769,9.695,5.5l4.219,2.386c.119.086.237.174.355.262a12.716,12.716,0,0,0,1.259.859q4.951,2.834,9.91,5.658l7.45,4.253c.393.223.476.291.458.856-.09,3.05-.075,6.136-.06,9.119.006,1.133.012,2.264.012,3.394v4.734q0,24.841.011,49.685a4.1,4.1,0,0,1-.024.533q-3.717,2.124-7.418,4.271l-13.255,7.624q-7.565,4.342-15.124,8.7-7.315,4.229-14.616,8.483l-8.369,4.866c-.229.133-.237.126-.447,0-3.288-1.963-6.548-3.865-9.686-5.655-1.678-.958-3.345-1.932-5.014-2.908-3.759-2.2-7.645-4.471-11.608-6.516l-.544-.374c-.515-.358-1.031-.715-1.573-1.03l-6.181-3.6c-7.62-4.436-15.5-9.021-23.315-13.427-.751-.423-.82-.552-.816-1.526q.037-8.829.025-17.659,0-7.209.014-14.42c.008-3.384-1.2-5.766-3.7-7.288a7.553,7.553,0,0,0-7.1-.354,6.022,6.022,0,0,0-3.824,6.009c.046,1.161.007,2.328-.035,3.562-.03.89-.061,1.78-.058,2.668q.01,4.893.048,9.784c.049,7.353.1,14.957-.029,22.419-.078,4.709,2.572,6.835,4.889,8.162l9.753,5.582q12.829,7.34,25.643,14.7,6.555,3.773,13.093,7.579,8.1,4.7,16.207,9.37a7.84,7.84,0,0,0,3.926,1.048,8.7,8.7,0,0,0,3.919-.963c2.085-1.052,4.112-2.236,6.07-3.383l1.559-.909q5.887-3.413,11.77-6.837,7.434-4.323,14.871-8.631l.215-.126c10.2-5.9,20.753-12,31.16-17.943a7.081,7.081,0,0,0,3.815-6.637Q417.223,407.21,417.266,368.395Z" transform="translate(-270.359 -323.502)" fill="rgba(255,255,255,0.14)"/>
</svg>
